#!OML:ASF H:\ManfredETheater\Project 1\Capture day 1\Session 1\subject.ASF
:FULLY-SPECIFIED
:DEGREES
108
root -0.548796 21.1539 -1.62362 -165.575 -2.05749 181.788
lowerback 12.1717 0.799791 1.90459
upperback -1.89746 1.5064 3.15286
thorax -8.92399 0.667545 2.00867
lowerneck -18.2129 -2.8258 -3.03647
upperneck 7.45404 -3.06817 -0.801515
head 5.20896 -1.69472 -0.0666852
rclavicle -4.77083e-015 -1.43125e-014
rhumerus -43.3552 3.07954 -88.7721
rradius 104.281
rwrist -5.54757
rhand -28.478 1.7317
rfingers 7.12502
rthumb -1.84756 -28.24
lclavicle -4.77083e-015 -1.43125e-014
lhumerus -58.8843 -14.5935 99.4987
lradius 92.6628
lwrist 10.1914
lhand -25.3777 -17.1644
lfingers 7.12502
lthumb 1.14679 12.8123
rfemur -18.4986 -4.26666 29.6169
rtibia 48.2533
rfoot -25.083 -11.438
rtoes -36.8888
lfemur -49.4548 3.31615 -14.7038
ltibia 97.6504
lfoot -13.8781 -5.38322
ltoes -7.20412
109
root -0.51265 21.1642 -2.11109 -165.651 -2.24466 182.183
lowerback 11.8133 1.03432 2.28683
upperback -2.03144 1.86335 3.13725
thorax -8.85796 0.818559 1.71042
lowerneck -18.286 -3.12291 -3.23585
upperneck 7.74994 -3.427 -0.582066
head 5.32483 -1.85734 -0.00435815
rclavicle 0 -1.35174e-014
rhumerus -43.1478 3.95481 -88.9771
rradius 105.705
rwrist -5.90478
rhand -28.2895 2.01013
rfingers 7.12502
rthumb -1.66554 -27.9631
lclavicle 0 -1.35174e-014
lhumerus -60.3697 -15.1029 99.5108
lradius 93.5758
lwrist 10.5168
lhand -24.9545 -17.1601
lfingers 7.12502
lthumb 1.55553 12.814
rfemur -15.8101 -4.53278 29.9947
rtibia 46.5169
rfoot -24.2268 -10.6563
rtoes -38.003
lfemur -51.2634 3.44221 -14.5629
ltibia 96.7607
lfoot -14.0805 -5.51533
ltoes -7.45058
110
root -0.47833 21.18 -2.6062 -165.749 -2.42888 182.551
lowerback 11.4497 1.26539 2.6645
upperback -2.16377 2.21098 3.10364
thorax -8.78112 0.965151 1.40107
lowerneck -18.3232 -3.41468 -3.44718
upperneck 8.02915 -3.78067 -0.347365
head 5.43195 -2.01626 0.0651598
rclavicle -1.78906e-014 -1.98785e-014
rhumerus -43.0141 4.86671 -89.1801
rradius 107.126
rwrist -6.23274
rhand -28.1112 2.34783
rfingers 7.12502
rthumb -1.49328 -27.6267
lclavicle -1.78906e-014 -1.98785e-014
lhumerus -61.879 -15.5657 99.5207
lradius 94.5009
lwrist 10.8339
lhand -24.5449 -17.1256
lfingers 7.12502
lthumb 1.95108 12.8453
rfemur -13.0422 -4.7626 30.2938
rtibia 44.6038
rfoot -23.0727 -9.61876
rtoes -38.9653
lfemur -52.8284 3.48523 -14.5004
ltibia 95.4852
lfoot -14.183 -5.58632
ltoes -7.68387
111
root -0.446038 21.2003 -3.10906 -165.876 -2.59956 182.9
lowerback 11.0818 1.49352 3.03866
upperback -2.2902 2.5501 3.05641
thorax -8.68959 1.10784 1.08469
lowerneck -18.3201 -3.69585 -3.66642
upperneck 8.28805 -4.12313 -0.101739
head 5.52828 -2.16888 0.14074
rclavicle 7.15625e-015 -5.64548e-014
rhumerus -42.9419 5.80588 -89.3804
rradius 108.515
rwrist -6.48221
rhand -27.9256 2.74762
rfingers 7.12502
rthumb -1.3141 -27.2281
lclavicle 7.15625e-015 -5.64548e-014
lhumerus -63.4018 -15.9531 99.5148
lradius 95.4106
lwrist 11.0963
lhand -24.1658 -17.0615
lfingers 7.12502
lthumb 2.31722 12.9056
rfemur -10.197 -4.93602 30.5198
rtibia 42.5228
rfoot -21.6017 -8.32467
rtoes -39.6909
lfemur -54.1269 3.46562 -14.4944
ltibia 93.8526
lfoot -14.1758 -5.6059
ltoes -7.91921
112
root -0.415322 21.223 -3.61909 -166.014 -2.76446 183.233
lowerback 10.6892 1.71355 3.40067
upperback -2.41429 2.87192 3.00127
thorax -8.57624 1.2432 0.774518
lowerneck -18.2596 -3.96115 -3.89602
upperneck 8.50848 -4.4484 0.157807
head 5.60528 -2.3123 0.225031
rclavicle 9.93923e-016 -2.8625e-014
rhumerus -42.9102 6.76758 -89.5792
rradius 109.84
rwrist -6.62086
rhand -27.7201 3.2087
rfingers 7.12502
rthumb -1.11555 -26.7681
lclavicle 9.93923e-016 -2.8625e-014
lhumerus -64.9268 -16.2434 99.4835
lradius 96.2865
lwrist 11.293
lhand -23.8403 -16.993
lfingers 7.12502
lthumb 2.63157 12.9705
rfemur -7.30918 -5.04544 30.6861
rtibia 40.2831
rfoot -19.7781 -6.81585
rtoes -40.1145
lfemur -55.1904 3.39325 -14.5299
ltibia 91.896
lfoot -14.0069 -5.59395
ltoes -8.08448
113
root -0.38572 21.2466 -4.1357 -166.155 -2.93678 183.549
lowerback 10.2597 1.91968 3.74565
upperback -2.53649 3.16728 2.94348
thorax -8.43574 1.36738 0.481065
lowerneck -18.1855 -4.20931 -4.1163
upperneck 8.73154 -4.75396 0.404621
head 5.68175 -2.44699 0.305671
rclavicle 4.51241e-014 1.27222e-014
rhumerus -42.9105 7.75227 -89.7812
rradius 111.087
rwrist -6.65083
rhand -27.5103 3.71702
rfingers 7.12502
rthumb -0.912988 -26.2608
lclavicle 4.51241e-014 1.27222e-014
lhumerus -66.4453 -16.4299 99.4247
lradius 97.1194
lwrist 11.4244
lhand -23.5881 -16.9199
lfingers 7.12502
lthumb 2.87517 13.0404
rfemur -4.39888 -5.08305 30.8091
rtibia 37.8856
rfoot -17.5621 -5.16711
rtoes -40.1603
lfemur -56.0386 3.27419 -14.5931
ltibia 89.6461
lfoot -13.6559 -5.57543
ltoes -8.30384
114
root -0.356726 21.2692 -4.65814 -166.297 -3.12245 183.848
lowerback 9.7976 2.10845 4.06365
upperback -2.66059 3.43071 2.88642
thorax -8.27639 1.47824 0.21424
lowerneck -18.1103 -4.43914 -4.31157
upperneck 8.97074 -5.03881 0.618243
head 5.76279 -2.57364 0.373468
rclavicle -3.77691e-015 -1.66979e-014
rhumerus -42.9403 8.74963 -89.9909
rradius 112.24
rwrist -6.57621
rhand -27.2812 4.25976
rfingers 7.12502
rthumb -0.691703 -25.7189
lclavicle -3.77691e-015 -1.66979e-014
lhumerus -67.9584 -16.512 99.3389
lradius 97.9098
lwrist 11.5106
lhand -23.414 -16.8408
lfingers 7.12502
lthumb 3.04333 13.1173
rfemur -1.47834 -5.03683 30.9054
rtibia 35.3253
rfoot -14.8929 -3.50767
rtoes -39.7975
lfemur -56.69 3.11927 -14.6779
ltibia 87.1276
lfoot -13.0734 -5.57859
ltoes -8.50112
115
root -0.328273 21.2891 -5.18578 -166.428 -3.31854 184.123
lowerback 9.29381 2.28085 4.34338
upperback -2.78871 3.66169 2.82965
thorax -8.09689 1.5762 -0.020035
lowerneck -18.0309 -4.64934 -4.49011
upperneck 9.22425 -5.30064 0.809332
head 5.84739 -2.69056 0.433476
rclavicle -1.47101e-014 2.3059e-014
rhumerus -43.0018 9.75145 -90.2122
rradius 113.299
rwrist -6.41975
rhand -27.0442 4.80569
rfingers 7.12502
rthumb -0.462772 -25.1736
lclavicle -1.47101e-014 2.3059e-014
lhumerus -69.4611 -16.5033 99.2305
lradius 98.6595
lwrist 11.5769
lhand -23.325 -16.7601
lfingers 7.12502
lthumb 3.12924 13.1967
rfemur 1.43302 -4.88966 30.9836
rtibia 32.5962
rfoot -11.7132 -2.0045
rtoes -39.1027
lfemur -57.1645 2.93279 -14.7809
ltibia 84.3625
lfoot -12.2303 -5.63976
ltoes -8.61821
116
root -0.300195 21.3045 -5.71753 -166.54 -3.52179 184.368
lowerback 8.74808 2.43958 4.57498
upperback -2.92584 3.86307 2.77135
thorax -7.90392 1.66287 -0.219044
lowerneck -17.9558 -4.84116 -4.64493
upperneck 9.50193 -5.54107 0.968008
head 5.93934 -2.7991 0.48103
rclavicle -2.38542e-015 6.75868e-014
rhumerus -43.0969 10.7509 -90.4459
rradius 114.264
rwrist -6.21191
rhand -26.8113 5.32824
rfingers 7.12502
rthumb -0.237864 -24.6514
lclavicle -2.38542e-015 6.75868e-014
lhumerus -70.9557 -16.4245 99.1074
lradius 99.3757
lwrist 11.651
lhand -23.3216 -16.6831
lfingers 7.12502
lthumb 3.13248 13.2736
rfemur 4.32302 -4.63178 31.055
rtibia 29.6928
rfoot -8.00365 -0.79856
rtoes -38.2162
lfemur -57.4819 2.72213 -14.9034
ltibia 81.3733
lfoot -11.1167 -5.77825
ltoes -8.72884
117
root -0.272535 21.3143 -6.25251 -166.617 -3.7189 184.576
lowerback 8.15332 2.5899 4.75138
upperback -3.07616 4.041 2.70688
thorax -7.69863 1.74132 -0.384841
lowerneck -17.8916 -5.0175 -4.77379
upperneck 9.80962 -5.76359 1.09011
head 6.04118 -2.90124 0.513872
rclavicle -9.83984e-015 1.98785e-014
rhumerus -43.2274 11.7416 -90.6955
rradius 115.136
rwrist -5.97863
rhand -26.5826 5.79883
rfingers 7.12502
rthumb -0.0169065 -24.1809
lclavicle -9.83984e-015 1.98785e-014
lhumerus -72.444 -16.2956 98.9736
lradius 100.073
lwrist 11.7465
lhand -23.3993 -16.5977
lfingers 7.12502
lthumb 3.05749 13.3601
rfemur 7.17032 -4.24304 31.1254
rtibia 26.6187
rfoot -3.80619 0.0176827
rtoes -37.2449
lfemur -57.6611 2.49757 -15.0476
ltibia 78.1769
lfoot -9.72965 -6.00663
ltoes -8.83264
118
root -0.245276 21.3169 -6.78947 -166.652 -3.90418 184.747
lowerback 7.51406 2.73508 4.87443
upperback -3.24409 4.20091 2.63212
thorax -7.48844 1.81354 -0.524093
lowerneck -17.8426 -5.17645 -4.88563
upperneck 10.1517 -5.96574 1.19502
head 6.15563 -2.99449 0.539667
rclavicle 3.51849e-014 -1.98785e-014
rhumerus -43.4 12.714 -90.9622
rradius 115.928
rwrist -5.75247
rhand -26.358 6.19396
rfingers 7.12502
rthumb 0.200024 -23.7857
lclavicle 3.51849e-014 -1.98785e-014
lhumerus -73.9232 -16.1458 98.8308
lradius 100.763
lwrist 11.8816
lhand -23.5408 -16.4932
lfingers 7.12502
lthumb 2.92079 13.4665
rfemur 9.96616 -3.7232 31.2064
rtibia 23.3922
rfoot 0.808609 0.417307
rtoes -36.2863
lfemur -57.7154 2.26068 -15.2046
ltibia 74.7945
lfoot -8.1044 -6.33843
ltoes -8.98253
119
root -0.218707 21.3114 -7.32795 -166.642 -4.04796 184.892
lowerback 6.83604 2.88661 4.95514
upperback -3.43272 4.36003 2.54437
thorax -7.27874 1.88673 -0.64843
lowerneck -17.7892 -5.32102 -4.99237
upperneck 10.5169 -6.15215 1.29946
head 6.27685 -3.08027 0.565722
rclavicle -5.19822e-014 -2.06736e-014
rhumerus -43.6254 13.661 -91.2469
rradius 116.652
rwrist -5.559
rhand -26.1298 6.49195
rfingers 7.12502
rthumb 0.420412 -23.4874
lclavicle -5.19822e-014 -2.06736e-014
lhumerus -75.4026 -15.9952 98.6837
lradius 101.459
lwrist 12.0593
lhand -23.745 -16.391
lfingers 7.12502
lthumb 2.72361 13.5714
rfemur 12.709 -3.06348 31.3059
rtibia 20.0519
rfoot 5.71848 0.485138
rtoes -35.4356
lfemur -57.6453 2.02787 -15.3562
ltibia 71.2456
lfoot -6.30392 -6.75949
ltoes -9.26769
120
root -0.192444 21.297 -7.86649 -166.575 -4.15224 185.007
lowerback 6.12211 3.04379 4.9928
upperback -3.64537 4.51794 2.43983
thorax -7.07471 1.96017 -0.76146
lowerneck -17.7324 -5.45124 -5.0902
upperneck 10.895 -6.324 1.40411
head 6.40161 -3.15897 0.591689
rclavicle -3.56818e-014 -4.29375e-014
rhumerus -43.8997 14.5812 -91.5511
rradius 117.317
rwrist -5.4197
rhand -25.8946 6.68142
rfingers 7.12502
rthumb 0.647578 -23.2973
lclavicle -3.56818e-014 -4.29375e-014
lhumerus -76.8741 -15.8641 98.5296
lradius 102.171
lwrist 12.2905
lhand -23.9886 -16.2737
lfingers 7.12502
lthumb 2.48836 13.6915
rfemur 15.2811 -2.29583 31.4236
rtibia 16.8483
rfoot 10.7462 0.400379
rtoes -34.4502
lfemur -57.4813 1.78866 -15.4919
ltibia 67.585
lfoot -4.39396 -7.2609
ltoes -9.6903
